<svg width="145" height="145" viewBox="0 0 145 145" fill="none" xmlns="http://www.w3.org/2000/svg">
<mask id="path-1-inside-1_45_860" fill="white">
<path d="M119.621 96.5426C113.956 107.547 104.65 116.247 93.2892 121.16C81.9284 126.073 69.2156 126.894 57.317 123.485C45.4184 120.075 35.0701 112.645 28.0354 102.461C21.0007 92.2771 17.7148 79.9689 18.7376 67.6337C19.7604 55.2985 25.0286 43.6996 33.6446 34.8133C42.2606 25.9269 53.6913 20.3029 65.989 18.8996C78.2867 17.4963 90.6905 20.4005 101.087 27.1172C111.484 33.834 119.229 43.9479 123.005 55.7355L72.0546 72.0546L119.621 96.5426Z"/>
</mask>
<path d="M119.621 96.5426C113.956 107.547 104.65 116.247 93.2892 121.16C81.9284 126.073 69.2156 126.894 57.317 123.485C45.4184 120.075 35.0701 112.645 28.0354 102.461C21.0007 92.2771 17.7148 79.9689 18.7376 67.6337C19.7604 55.2985 25.0286 43.6996 33.6446 34.8133C42.2606 25.9269 53.6913 20.3029 65.989 18.8996C78.2867 17.4963 90.6905 20.4005 101.087 27.1172C111.484 33.834 119.229 43.9479 123.005 55.7355L72.0546 72.0546L119.621 96.5426Z" fill="#C50076" stroke="black" stroke-width="10" mask="url(#path-1-inside-1_45_860)"/>
<circle cx="69" cy="45" r="8" fill="#C50076" stroke="white" stroke-width="4"/>
</svg>
