<svg width="1920" height="1080" viewBox="0 0 1920 1080" fill="none" xmlns="http://www.w3.org/2000/svg">
<g clip-path="url(#clip0_24_131)">
<rect width="1920" height="1080" fill="#C2EAFF"/>
<rect y="706" width="26" height="26" fill="black"/>
<rect y="732" width="26" height="250" fill="#8ECA58"/>
<rect x="26" y="758" width="26" height="224" fill="#8ECA58"/>
<rect x="104" y="706" width="26" height="276" fill="#8ECA58"/>
<rect x="364" y="706" width="26" height="276" fill="#8ECA58"/>
<rect x="846" y="719" width="26" height="39" fill="#8ECA58"/>
<rect x="820" y="732" width="26" height="39" fill="#8ECA58"/>
<rect x="950" y="615" width="26" height="143" fill="#8ECA58"/>
<rect x="872" y="696" width="26" height="62" fill="#8ECA58"/>
<rect x="637" y="732" width="26" height="39" fill="#8ECA58"/>
<rect x="573" y="706" width="64" height="52" fill="#8ECA58"/>
<rect x="559" y="730" width="26" height="39" fill="#8ECA58"/>
<rect x="130" y="680" width="26" height="302" fill="#8ECA58"/>
<rect x="338" y="680" width="26" height="302" fill="#8ECA58"/>
<rect x="156" y="657" width="26" height="325" fill="#8ECA58"/>
<rect x="312" y="657" width="26" height="325" fill="#8ECA58"/>
<rect x="1157" y="504" width="26" height="478" fill="#8ECA58"/>
<rect x="1183" y="530" width="26" height="478" fill="#8ECA58"/>
<rect x="1209" y="555" width="26" height="427" fill="#8ECA58"/>
<rect x="1235" y="605" width="26" height="377" fill="#8ECA58"/>
<rect x="1417" y="683" width="26" height="299" fill="#8ECA58"/>
<rect x="1287" y="680" width="26" height="302" fill="#8ECA58"/>
<rect x="1313" y="706" width="26" height="276" fill="#8ECA58"/>
<rect x="1391" y="706" width="26" height="276" fill="#8ECA58"/>
<rect x="1443" y="706" width="26" height="276" fill="#8ECA58"/>
<rect x="1261" y="654" width="26" height="328" fill="#8ECA58"/>
<rect x="234" y="605" width="26" height="377" fill="#8ECA58"/>
<rect x="1054" y="504" width="25" height="254" fill="#8ECA58"/>
<rect x="1028" y="530" width="26" height="254" fill="#8ECA58"/>
<rect x="1003" y="556" width="25" height="254" fill="#8ECA58"/>
<rect x="976" y="603" width="27" height="254" fill="#8ECA58"/>
<rect x="923" y="678" width="27" height="80" fill="#8ECA58"/>
<rect x="896" y="706" width="27" height="80" fill="#8ECA58"/>
<rect x="52" y="732" width="52" height="250" fill="#8ECA58"/>
<rect x="1339" y="732" width="52" height="250" fill="#8ECA58"/>
<rect x="1469" y="732" width="43" height="250" fill="#8ECA58"/>
<rect x="260" y="631" width="52" height="351" fill="#8ECA58"/>
<rect x="390" y="732" width="52" height="250" fill="#8ECA58"/>
<rect x="442" y="758" width="637" height="224" fill="#8ECA58"/>
<rect x="182" y="631" width="52" height="351" fill="#8ECA58"/>
<rect y="846" width="390" height="234" fill="#8ECA58"/>
<rect x="108" y="883" width="390" height="197" fill="#8ECA58"/>
<rect x="416" y="827" width="390" height="253" fill="#8ECA58"/>
<rect x="183" y="734" width="259" height="123" fill="#8ECA58"/>
<rect x="131" y="680" width="233" height="26" fill="#8ECA58"/>
<rect x="105" y="696" width="285" height="62" fill="#8ECA58"/>
<rect x="130" y="666" width="234" height="38" fill="#8ECA58"/>
<rect x="182" y="615" width="130" height="89" fill="#8ECA58"/>
<rect x="567" y="719" width="91" height="99" fill="#8ECA58"/>
<rect x="938" y="631" width="336" height="163" fill="#8ECA58"/>
<rect x="1105" y="565" width="143" height="184" fill="#8ECA58"/>
<rect x="1079" y="543" width="143" height="184" fill="#8ECA58"/>
<rect x="1162" y="673" width="140" height="184" fill="#8ECA58"/>
<rect x="1186" y="699" width="140" height="184" fill="#8ECA58"/>
<rect x="1256" y="765" width="664" height="142" fill="#8ECA58"/>
<rect x="1403" y="699" width="58" height="158" fill="#8ECA58"/>
<rect x="1302" y="736" width="167" height="158" fill="#8ECA58"/>
<rect x="1506" y="727" width="58" height="158" fill="#8ECA58"/>
<rect x="1532" y="752" width="58" height="158" fill="#8ECA58"/>
<rect x="1667" y="732" width="232" height="158" fill="#8ECA58"/>
<rect x="1769" y="706" width="104" height="158" fill="#8ECA58"/>
<rect x="1642" y="749" width="278" height="165" fill="#8ECA58"/>
<rect x="766" y="757" width="336" height="163" fill="#8ECA58"/>
<rect x="814" y="733" width="336" height="163" fill="#8ECA58"/>
<rect x="857" y="714" width="336" height="163" fill="#8ECA58"/>
<rect x="899" y="694" width="336" height="163" fill="#8ECA58"/>
<rect x="2" y="758" width="687" height="88" fill="#8ECA58"/>
<rect x="689" y="782" width="1231" height="298" fill="#8ECA58"/>
<rect x="1079" y="478" width="78" height="504" fill="#8ECA58"/>
<rect x="26" y="732" width="26" height="26" fill="black"/>
<rect x="52" y="706" width="26" height="26" fill="black"/>
<rect x="65" y="706" width="39" height="26" fill="black"/>
<rect x="104" y="680" width="26" height="26" fill="black"/>
<rect x="104" y="794" width="26" height="26" fill="#558B25"/>
<rect x="130" y="820" width="26" height="26" fill="#558B25"/>
<rect x="818" y="870" width="26" height="26" fill="#558B25"/>
<rect x="844" y="896" width="26" height="26" fill="#558B25"/>
<rect x="1131" y="628" width="26" height="26" fill="#558B25"/>
<rect x="1157" y="602" width="26" height="26" fill="#558B25"/>
<rect x="1365" y="902" width="26" height="26" fill="#558B25"/>
<rect x="1659" y="982" width="26" height="26" fill="#558B25"/>
<rect x="1633" y="956" width="26" height="26" fill="#558B25"/>
<rect x="1685" y="956" width="26" height="26" fill="#558B25"/>
<rect x="1339" y="928" width="26" height="26" fill="#558B25"/>
<rect x="156" y="794" width="26" height="26" fill="#558B25"/>
<rect x="1143" y="732" width="26" height="26" fill="#558B25"/>
<rect x="1169" y="758" width="26" height="26" fill="#558B25"/>
<rect x="1195" y="732" width="26" height="26" fill="#558B25"/>
<rect x="390" y="857" width="26" height="26" fill="#558B25"/>
<rect x="534" y="1008" width="26" height="26" fill="#558B25"/>
<rect x="560" y="982" width="26" height="26" fill="#558B25"/>
<rect x="130" y="654" width="26" height="26" fill="black"/>
<rect x="156" y="631" width="26" height="26" fill="black"/>
<rect x="182" y="605" width="39" height="26" fill="black"/>
<rect x="208" y="605" width="26" height="26" fill="black"/>
<rect x="234" y="579" width="26" height="26" fill="black"/>
<rect x="260" y="605" width="52" height="26" fill="black"/>
<rect x="273" y="605" width="39" height="26" fill="black"/>
<rect x="312" y="631" width="26" height="26" fill="black"/>
<rect x="338" y="654" width="26" height="26" fill="black"/>
<rect x="364" y="680" width="26" height="26" fill="black"/>
<rect x="390" y="706" width="26" height="26" fill="black"/>
<rect x="403" y="706" width="39" height="26" fill="black"/>
<rect x="637" y="708" width="26" height="26" fill="black"/>
<rect x="741" y="758" width="26" height="26" fill="black"/>
<rect x="715" y="758" width="26" height="26" fill="black"/>
<rect x="689" y="758" width="69" height="26" fill="black"/>
<rect x="846" y="706" width="26" height="26" fill="black"/>
<rect x="820" y="706" width="38" height="26" fill="black"/>
<rect x="793" y="732" width="26" height="26" fill="black"/>
<rect x="442" y="732" width="106" height="26" fill="black"/>
<rect x="611" y="680" width="26" height="26" fill="black"/>
<rect x="663" y="734" width="26" height="26" fill="black"/>
<rect x="767" y="732" width="39" height="26" fill="black"/>
<rect x="924" y="631" width="26" height="26" fill="black"/>
<rect x="924" y="645" width="26" height="38" fill="black"/>
<rect x="898" y="683" width="26" height="26" fill="black"/>
<rect x="1053" y="478" width="26" height="26" fill="black"/>
<rect x="1028" y="504" width="26" height="26" fill="black"/>
<rect x="1002" y="529" width="26" height="26" fill="black"/>
<rect x="976" y="553" width="26" height="26" fill="black"/>
<rect x="976" y="579" width="26" height="26" fill="black"/>
<rect x="1079" y="452" width="26" height="26" fill="black"/>
<rect x="1105" y="452" width="26" height="26" fill="black"/>
<rect x="1131" y="452" width="26" height="26" fill="black"/>
<rect x="1157" y="478" width="26" height="26" fill="black"/>
<rect x="1183" y="504" width="26" height="26" fill="black"/>
<rect x="1209" y="530" width="26" height="26" fill="black"/>
<rect x="1235" y="556" width="26" height="37" fill="black"/>
<rect x="1261" y="605" width="26" height="26" fill="black"/>
<rect x="1261" y="615" width="26" height="39" fill="black"/>
<rect x="1235" y="579" width="26" height="26" fill="black"/>
<rect x="1287" y="654" width="26" height="26" fill="black"/>
<rect x="1313" y="680" width="26" height="26" fill="black"/>
<rect x="1339" y="706" width="40" height="26" fill="black"/>
<rect x="1365" y="706" width="26" height="26" fill="black"/>
<rect x="1391" y="680" width="26" height="26" fill="black"/>
<rect x="1417" y="657" width="26" height="26" fill="black"/>
<rect x="1469" y="706" width="81" height="26" fill="black"/>
<rect x="1443" y="680" width="26" height="26" fill="black"/>
<rect x="1486" y="706" width="26" height="26" fill="black"/>
<rect x="1512" y="706" width="26" height="26" fill="black"/>
<rect x="1538" y="706" width="26" height="26" fill="black"/>
<rect x="1564" y="731" width="26" height="26" fill="black"/>
<rect x="1590" y="756" width="43" height="26" fill="black"/>
<rect x="1616" y="756" width="26" height="26" fill="black"/>
<rect x="1641" y="730" width="26" height="26" fill="black"/>
<rect x="1667" y="706" width="90" height="26" fill="black"/>
<rect x="1693" y="706" width="26" height="26" fill="black"/>
<rect x="1718" y="706" width="26" height="26" fill="black"/>
<rect x="1743" y="706" width="26" height="26" fill="black"/>
<rect x="1769" y="680" width="42" height="26" fill="black"/>
<rect x="1795" y="680" width="26" height="26" fill="black"/>
<rect x="1821" y="707" width="26" height="26" fill="black"/>
<rect x="1847" y="681" width="26" height="26" fill="black"/>
<rect x="1873" y="707" width="26" height="26" fill="black"/>
<rect x="1899" y="730" width="26" height="26" fill="black"/>
<rect x="950" y="605" width="26" height="26" fill="black"/>
<rect x="872" y="683" width="41" height="26" fill="black"/>
<rect x="467" y="732" width="26" height="26" fill="black"/>
<rect x="485" y="732" width="26" height="26" fill="black"/>
<rect x="507" y="732" width="26" height="26" fill="black"/>
<rect x="533" y="732" width="26" height="26" fill="black"/>
<rect x="559" y="706" width="26" height="26" fill="black"/>
<rect x="585" y="680" width="37" height="26" fill="black"/>
<rect x="195" y="72" width="39" height="26" fill="black"/>
<rect x="169" y="98" width="26" height="39" fill="black"/>
<rect x="65" y="280" width="26" height="49" fill="black"/>
<rect x="169" y="124" width="26" height="26" fill="black"/>
<rect x="117" y="150" width="26" height="26" fill="black"/>
<rect x="39" y="202" width="26" height="61" fill="black"/>
<rect x="91" y="150" width="65" height="26" fill="black"/>
<rect x="39" y="228" width="26" height="26" fill="black"/>
<rect x="39" y="254" width="26" height="26" fill="black"/>
<rect x="65" y="303" width="26" height="26" fill="black"/>
<rect x="77" y="303" width="40" height="26" fill="black"/>
<rect x="117" y="329" width="63" height="26" fill="black"/>
<rect x="325" y="46" width="26" height="26" fill="black"/>
<rect x="468" y="150" width="40" height="26" fill="black"/>
<rect x="65" y="176" width="26" height="26" fill="black"/>
<rect x="169" y="329" width="26" height="26" fill="black"/>
<rect x="195" y="306" width="115" height="26" fill="black"/>
<rect x="221" y="306" width="26" height="26" fill="black"/>
<rect x="247" y="306" width="26" height="26" fill="black"/>
<rect x="273" y="306" width="26" height="26" fill="black"/>
<rect x="299" y="306" width="26" height="26" fill="black"/>
<rect x="325" y="332" width="93" height="26" fill="black"/>
<rect x="221" y="72" width="26" height="26" fill="black"/>
<rect x="247" y="46" width="88" height="26" fill="black"/>
<rect x="273" y="46" width="26" height="26" fill="black"/>
<rect x="299" y="46" width="26" height="26" fill="black"/>
<rect x="351" y="72" width="26" height="26" fill="black"/>
<rect x="377" y="98" width="64" height="26" fill="black"/>
<rect x="403" y="98" width="26" height="26" fill="black"/>
<rect x="429" y="98" width="26" height="26" fill="black"/>
<rect x="143" y="329" width="26" height="26" fill="black"/>
<rect x="456" y="124" width="26" height="43" fill="black"/>
<rect x="351" y="332" width="26" height="26" fill="black"/>
<rect x="377" y="332" width="26" height="26" fill="black"/>
<rect x="403" y="332" width="26" height="26" fill="black"/>
<rect x="430" y="306" width="123" height="26" fill="black"/>
<rect x="456" y="306" width="26" height="26" fill="black"/>
<rect x="456" y="150" width="26" height="26" fill="black"/>
<rect x="507" y="176" width="26" height="26" fill="black"/>
<rect x="522" y="176" width="37" height="26" fill="black"/>
<rect x="559" y="202" width="26" height="26" fill="black"/>
<rect x="559" y="228" width="26" height="26" fill="black"/>
<rect x="559" y="254" width="26" height="26" fill="black"/>
<rect x="559" y="214" width="26" height="92" fill="black"/>
<rect x="482" y="306" width="26" height="26" fill="black"/>
<rect x="508" y="306" width="26" height="26" fill="black"/>
<rect x="534" y="306" width="26" height="26" fill="black"/>
<rect x="143" y="150" width="26" height="26" fill="black"/>
<rect x="91" y="176" width="26" height="130" fill="#EAEAF2"/>
<rect x="117" y="280" width="78" height="49" fill="#EAEAF2"/>
<rect x="195" y="280" width="156" height="26" fill="#EAEAF2"/>
<rect x="117" y="176" width="52" height="104" fill="white"/>
<rect x="169" y="150" width="26" height="130" fill="white"/>
<rect x="155" y="176" width="92" height="104" fill="white"/>
<rect x="199" y="124" width="74" height="52" fill="white"/>
<rect x="217" y="202" width="134" height="52" fill="white"/>
<rect x="364" y="150" width="66" height="156" fill="white"/>
<rect x="364" y="150" width="66" height="156" fill="white"/>
<rect x="143" y="176" width="26" height="130" fill="white"/>
<rect x="195" y="98" width="26" height="182" fill="white"/>
<rect x="195" y="98" width="52" height="182" fill="white"/>
<rect x="351" y="98" width="26" height="208" fill="white"/>
<rect x="428" y="124" width="28" height="179" fill="white"/>
<rect x="441" y="176" width="66" height="127" fill="white"/>
<rect x="482" y="202" width="77" height="104" fill="white"/>
<rect x="377" y="124" width="64" height="182" fill="white"/>
<rect x="337" y="150" width="64" height="130" fill="white"/>
<rect x="247" y="72" width="104" height="208" fill="white"/>
<rect x="65" y="202" width="47" height="78" fill="#EAEAF2"/>
<rect x="430" y="283" width="87" height="23" fill="#EAEAF2"/>
<rect x="117" y="254" width="26" height="75" fill="#EAEAF2"/>
<rect x="247" y="254" width="78" height="40" fill="#EAEAF2"/>
<rect x="195" y="98" width="52" height="26" fill="#EAEAF2"/>
<rect x="299" y="72" width="52" height="26" fill="#EAEAF2"/>
<rect x="325" y="82" width="26" height="42" fill="#EAEAF2"/>
<rect x="273" y="150" width="52" height="26" fill="#EAEAF2"/>
<rect x="325" y="124" width="78" height="26" fill="#EAEAF2"/>
<rect x="351" y="98" width="26" height="26" fill="#EAEAF2"/>
<rect x="325" y="98" width="52" height="35" fill="#EAEAF2"/>
<rect x="247" y="176" width="26" height="26" fill="#EAEAF2"/>
<rect x="104" y="254" width="26" height="52" fill="#EAEAF2"/>
<rect x="456" y="176" width="52" height="26" fill="#EAEAF2"/>
<rect x="325" y="306" width="105" height="26" fill="#EAEAF2"/>
<path d="M1534.04 96.48V92.88H1530.4V88.84H1534.44V92.48H1544.92V85.6H1534.04V82H1530.4V74.4H1534.04V70.76H1545.32V74.4H1549V78.4H1544.92V74.8H1534.44V81.64H1545.32V85.2H1549V92.88H1545.32V96.48H1534.04ZM1559.48 96.48V92.88H1555.88V82H1552.24V78H1555.88V70.76H1559.88V78H1570.84V82H1559.88V92.48H1570.44V88.84H1574.48V92.88H1570.84V96.48H1559.48ZM1581.74 96.48V92.88H1578.1V81.64H1581.74V78H1593.02V81.64H1596.7V92.48H1600.34V96.48H1596.3V92.88H1593.02V96.48H1581.74ZM1582.14 92.48H1592.62V82H1582.14V92.48ZM1605.17 96.48V81.64H1608.81V78H1620.09V81.64H1623.77V85.6H1619.69V82H1609.21V96.48H1605.17ZM1635.13 88V83.96H1646.41V88H1635.13ZM1657.94 96.48V74.4H1661.58V70.76H1672.86V74.4H1676.54V85.6H1672.86V89.24H1661.98V96.48H1657.94ZM1661.98 85.2H1672.46V74.8H1661.98V85.2ZM1680.6 96.48V70.76H1684.64V96.48H1680.6ZM1692.32 96.48V92.88H1688.68V81.64H1692.32V78H1703.6V81.64H1707.28V92.48H1710.92V96.48H1706.88V92.88H1703.6V96.48H1692.32ZM1692.72 92.48H1703.2V82H1692.72V92.48ZM1716.58 103.72V100.12H1712.94V96.12H1716.98V99.72H1727.5V92.88H1716.58V89.24H1712.94V78H1716.98V88.84H1727.5V78H1731.54V100.12H1727.9V103.72H1716.58ZM1740.02 96.48V92.88H1736.38V81.64H1740.02V78H1751.3V81.64H1754.98V85.6H1750.9V82H1740.42V85.2H1747.7V89.24H1740.42V92.48H1750.9V88.8H1754.98V92.84H1751.3V96.48H1740.02ZM1759.81 96.48V81.64H1763.45V78H1774.73V81.64H1778.41V85.6H1774.33V82H1763.85V96.48H1759.81ZM1794.9 96.48V92.88H1791.26V74.4H1794.9V70.76H1806.18V74.4H1809.86V92.88H1806.18V96.48H1794.9ZM1795.3 92.48H1805.78V74.8H1795.3V92.48ZM1814.7 96.48V78H1829.62V81.64H1833.3V96.48H1829.22V82H1818.74V96.48H1814.7ZM1840.56 96.48V92.88H1836.92V81.64H1840.56V78H1851.84V81.64H1855.52V85.6H1851.44V82H1840.96V85.2H1848.24V89.24H1840.96V92.48H1851.44V88.8H1855.52V92.84H1851.84V96.48H1840.56Z" fill="black"/>
<path d="M1518.04 161.48V157.88H1514.4V139.4H1518.04V135.76H1529.32V139.4H1533V147H1528.92V139.8H1518.44V157.48H1528.92V150.2H1533V157.88H1529.32V161.48H1518.04ZM1537.84 161.48V143H1541.88V161.48H1537.84ZM1537.84 139.8V135.76H1541.88V139.8H1537.84ZM1546.7 161.48V146.64H1550.34V143H1561.62V146.64H1565.3V150.6H1561.22V147H1550.74V161.48H1546.7ZM1573 161.48V157.88H1569.36V146.64H1573V143H1584.28V146.64H1587.96V150.6H1583.88V147H1573.4V157.48H1583.88V153.84H1587.96V157.88H1584.28V161.48H1573ZM1592.02 161.48V135.76H1596.06V161.48H1592.02ZM1603.74 161.48V157.88H1600.1V146.64H1603.74V143H1615.02V146.64H1618.7V150.6H1614.62V147H1604.14V150.2H1611.42V154.24H1604.14V157.48H1614.62V153.8H1618.7V157.84H1615.02V161.48H1603.74ZM1630.07 153V148.96H1641.35V153H1630.07ZM1652.88 161.48V139.4H1656.52V135.76H1667.8V139.4H1671.48V150.6H1667.8V154.24H1656.92V161.48H1652.88ZM1656.92 150.2H1667.4V139.8H1656.92V150.2ZM1675.53 161.48V135.76H1679.57V161.48H1675.53ZM1687.26 161.48V157.88H1683.62V146.64H1687.26V143H1698.54V146.64H1702.22V157.48H1705.86V161.48H1701.82V157.88H1698.54V161.48H1687.26ZM1687.66 157.48H1698.14V147H1687.66V157.48ZM1711.52 168.72V165.12H1707.88V161.12H1711.92V164.72H1722.44V157.88H1711.52V154.24H1707.88V143H1711.92V153.84H1722.44V143H1726.48V165.12H1722.84V168.72H1711.52ZM1734.95 161.48V157.88H1731.31V146.64H1734.95V143H1746.23V146.64H1749.91V150.6H1745.83V147H1735.35V150.2H1742.63V154.24H1735.35V157.48H1745.83V153.8H1749.91V157.84H1746.23V161.48H1734.95ZM1754.75 161.48V146.64H1758.39V143H1769.67V146.64H1773.35V150.6H1769.27V147H1758.79V161.48H1754.75ZM1793.44 161.48V139.8H1790.24V143.4H1786.2V139.4H1789.84V135.76H1801.12V139.4H1804.8V143.4H1800.72V139.8H1797.52V161.48H1793.44ZM1807.25 161.48V143H1811.29V157.48H1818.17V143H1822.17V157.48H1829.09V143H1833.09V157.88H1829.49V161.48H1821.77V157.88H1818.57V161.48H1807.25ZM1840.34 161.48V157.88H1836.7V146.64H1840.34V143H1851.62V146.64H1855.3V157.88H1851.62V161.48H1840.34ZM1840.74 157.48H1851.22V147H1840.74V157.48Z" fill="black"/>
<mask id="path-251-inside-1_24_131" fill="white">
<rect x="539" y="482" width="842" height="191" rx="5"/>
</mask>
<rect x="539" y="482" width="842" height="191" rx="5" fill="#FEF397" stroke="black" stroke-width="20" mask="url(#path-251-inside-1_24_131)"/>
<mask id="path-252-inside-2_24_131" fill="white">
<rect x="726" y="378" width="473" height="143" rx="5"/>
</mask>
<g filter="url(#filter0_i_24_131)">
<rect x="726" y="378" width="473" height="143" rx="5" fill="#FFA154"/>
</g>
<rect x="726" y="378" width="473" height="143" rx="5" stroke="black" stroke-width="20" mask="url(#path-252-inside-2_24_131)"/>
<path d="M624.885 616.152V563.16H633.621V554.424H660.693V563.16H669.525V590.04H660.693V598.776H634.581V616.152H624.885ZM634.581 589.08H659.733V564.12H634.581V589.08ZM686.965 616.152V607.512H678.229V580.536H686.965V571.8H714.037V580.536H722.869V606.552H731.605V616.152H721.909V607.512H714.037V616.152H686.965ZM687.925 606.552H713.077V581.4H687.925V606.552ZM749.98 616.152V607.512H741.34V581.4H732.604V571.8H741.34V554.424H750.94V571.8H777.244V581.4H750.94V606.552H776.284V597.816H785.98V607.512H777.244V616.152H749.98ZM795.698 616.152V554.424H805.394V580.536H813.074V571.8H831.506V580.536H840.338V616.152H830.546V581.4H814.034V590.04H805.394V616.152H795.698ZM850.073 616.152V606.552H884.921V598.776H858.809V590.04H850.073V580.536H858.809V571.8H894.713V581.4H859.769V589.08H885.881V597.816H894.713V607.512H885.881V616.152H850.073ZM934.277 616.152V607.512H925.541V563.16H934.277V554.424H961.349V563.16H970.181V581.4H960.389V564.12H935.237V606.552H960.389V589.08H970.181V607.512H961.349V616.152H934.277ZM981.791 616.152V580.536H990.527V571.8H1017.6V580.536H1026.43V590.04H1016.64V581.4H991.487V616.152H981.791ZM1043.87 616.152V607.512H1035.14V580.536H1043.87V571.8H1070.94V580.536H1079.78V607.512H1070.94V616.152H1043.87ZM1044.83 606.552H1069.98V581.4H1044.83V606.552ZM1091.39 616.152V606.552H1126.23V598.776H1100.12V590.04H1091.39V580.536H1100.12V571.8H1136.03V581.4H1101.08V589.08H1127.19V597.816H1136.03V607.512H1127.19V616.152H1091.39ZM1145.76 616.152V606.552H1180.61V598.776H1154.5V590.04H1145.76V580.536H1154.5V571.8H1190.4V581.4H1155.46V589.08H1181.57V597.816H1190.4V607.512H1181.57V616.152H1145.76ZM1208.87 616.152V607.512H1200.14V580.536H1208.87V571.8H1235.94V580.536H1244.78V590.04H1234.98V581.4H1209.83V589.08H1227.3V598.776H1209.83V606.552H1234.98V597.72H1244.78V607.416H1235.94V616.152H1208.87ZM1265.12 616.152V607.512H1256.39V580.536H1265.12V571.8H1291.33V554.424H1301.03V607.512H1292.19V616.152H1265.12ZM1266.08 606.552H1291.23V581.4H1266.08V606.552Z" fill="black"/>
<path d="M757.354 442.66V407.295H772.919V412.3H777.869V417.25H782.929V432.705H777.869V437.71H772.919V442.66H757.354ZM762.909 437.16H772.369V432.155H777.319V417.8H772.369V412.85H762.909V437.16ZM794.586 442.66V437.71H789.581V422.255H794.586V417.25H810.096V422.255H815.156V427.7H809.546V422.75H795.136V427.15H805.146V432.705H795.136V437.16H809.546V432.1H815.156V437.655H810.096V442.66H794.586ZM826.812 442.66V437.71H821.807V422.255H826.812V417.25H842.322V422.255H847.382V427.7H841.772V422.75H827.362V437.16H841.772V432.155H847.382V437.71H842.322V442.66H826.812ZM854.034 442.66V417.25H859.589V442.66H854.034ZM854.034 412.85V407.295H859.589V412.85H854.034ZM866.226 442.66V437.16H886.191V432.705H871.231V427.7H866.226V422.255H871.231V417.25H891.801V422.75H871.781V427.15H886.741V432.155H891.801V437.71H886.741V442.66H866.226ZM898.453 442.66V417.25H904.008V442.66H898.453ZM898.453 412.85V407.295H904.008V412.85H898.453ZM914.576 442.66V437.71H909.571V422.255H914.576V417.25H930.086V422.255H935.146V437.71H930.086V442.66H914.576ZM915.126 437.16H929.536V422.75H915.126V437.16ZM941.798 442.66V417.25H962.313V422.255H967.373V442.66H961.763V422.75H947.353V442.66H941.798ZM971.989 431V425.445H987.499V431H971.989ZM992.34 442.66V412.3H997.345V407.295H1002.84V412.3H1007.9V422.255H1012.3V412.3H1017.36V407.295H1022.92V412.3H1027.87V442.66H1022.37V412.85H1017.91V422.75H1012.85V437.71H1007.35V422.75H1002.29V412.85H997.895V442.66H992.34ZM1039.51 442.66V437.71H1034.5V422.255H1039.51V417.25H1055.02V422.255H1060.08V437.16H1065.08V442.66H1059.53V437.71H1055.02V442.66H1039.51ZM1040.06 437.16H1054.47V422.75H1040.06V437.16ZM1069.52 442.66V407.295H1075.08V427.15H1079.48V422.255H1089.49V417.25H1095.1V422.75H1090.04V427.7H1080.03V432.155H1090.04V437.16H1095.1V442.66H1089.49V437.71H1079.48V432.705H1075.08V442.66H1069.52ZM1101.75 442.66V417.25H1107.3V442.66H1101.75ZM1101.75 412.85V407.295H1107.3V412.85H1101.75ZM1112.87 442.66V417.25H1133.38V422.255H1138.44V442.66H1132.83V422.75H1118.42V442.66H1112.87ZM1149.02 452.615V447.665H1144.02V442.165H1149.57V447.115H1164.04V437.71H1149.02V432.705H1144.02V422.255H1149.02V417.25H1164.59V422.255H1169.59V447.665H1164.59V452.615H1149.02ZM1149.57 432.155H1164.04V422.75H1149.57V432.155ZM830.822 492.66V462.85H826.422V467.8H820.867V462.3H825.872V457.295H841.382V462.3H846.442V467.8H840.832V462.85H836.432V492.66H830.822ZM851.429 492.66V467.25H856.984V492.66H851.429ZM851.429 462.85V457.295H856.984V462.85H851.429ZM867.552 492.66V487.71H862.547V472.255H867.552V467.25H883.062V472.255H888.122V477.7H882.512V472.75H868.102V487.16H882.512V482.155H888.122V487.71H883.062V492.66H867.552ZM892.739 481V475.445H908.249V481H892.739ZM921.379 492.66V462.85H916.979V467.8H911.424V462.3H916.429V457.295H931.939V462.3H936.999V467.8H931.389V462.85H926.989V492.66H921.379ZM943.177 492.66V487.71H938.172V472.255H943.177V467.25H958.687V472.255H963.747V487.16H968.752V492.66H963.197V487.71H958.687V492.66H943.177ZM943.727 487.16H958.137V472.75H943.727V487.16ZM977.659 492.66V487.71H972.654V472.255H977.659V467.25H993.169V472.255H998.229V477.7H992.619V472.75H978.209V487.16H992.619V482.155H998.229V487.71H993.169V492.66H977.659ZM1002.85 481V475.445H1018.36V481H1002.85ZM1031.49 492.66V462.85H1027.09V467.8H1021.53V462.3H1026.54V457.295H1042.05V462.3H1047.11V467.8H1041.5V462.85H1037.1V492.66H1031.49ZM1053.28 492.66V487.71H1048.28V472.255H1053.28V467.25H1068.79V472.255H1073.85V487.71H1068.79V492.66H1053.28ZM1053.83 487.16H1068.24V472.75H1053.83V487.16ZM1085.51 492.66V487.71H1080.51V472.255H1085.51V467.25H1101.02V472.255H1106.08V477.7H1100.47V472.75H1086.06V477.15H1096.07V482.705H1086.06V487.16H1100.47V482.1H1106.08V487.655H1101.02V492.66H1085.51Z" fill="black"/>
</g>
<defs>
<filter id="filter0_i_24_131" x="726" y="378" width="473" height="147" filterUnits="userSpaceOnUse" color-interpolation-filters="sRGB">
<feFlood flood-opacity="0" result="BackgroundImageFix"/>
<feBlend mode="normal" in="SourceGraphic" in2="BackgroundImageFix" result="shape"/>
<feColorMatrix in="SourceAlpha" type="matrix" values="0 0 0 0 0 0 0 0 0 0 0 0 0 0 0 0 0 0 127 0" result="hardAlpha"/>
<feOffset dy="4"/>
<feGaussianBlur stdDeviation="2"/>
<feComposite in2="hardAlpha" operator="arithmetic" k2="-1" k3="1"/>
<feColorMatrix type="matrix" values="0 0 0 0 0 0 0 0 0 0 0 0 0 0 0 0 0 0 0.25 0"/>
<feBlend mode="normal" in2="shape" result="effect1_innerShadow_24_131"/>
</filter>
<clipPath id="clip0_24_131">
<rect width="1920" height="1080" fill="white"/>
</clipPath>
</defs>
</svg>
