<svg width="1920" height="1080" viewBox="0 0 1920 1080" fill="none" xmlns="http://www.w3.org/2000/svg">
<g clip-path="url(#clip0_24_131)">
<rect width="1920" height="1080" fill="#C2EAFF"/>
<rect y="706" width="26" height="26" fill="black"/>
<rect y="732" width="26" height="250" fill="#8ECA58"/>
<rect x="26" y="758" width="26" height="224" fill="#8ECA58"/>
<rect x="104" y="706" width="26" height="276" fill="#8ECA58"/>
<rect x="364" y="706" width="26" height="276" fill="#8ECA58"/>
<rect x="846" y="719" width="26" height="39" fill="#8ECA58"/>
<rect x="820" y="732" width="26" height="39" fill="#8ECA58"/>
<rect x="950" y="615" width="26" height="143" fill="#8ECA58"/>
<rect x="872" y="696" width="26" height="62" fill="#8ECA58"/>
<rect x="637" y="732" width="26" height="39" fill="#8ECA58"/>
<rect x="573" y="706" width="64" height="52" fill="#8ECA58"/>
<rect x="559" y="730" width="26" height="39" fill="#8ECA58"/>
<rect x="130" y="680" width="26" height="302" fill="#8ECA58"/>
<rect x="338" y="680" width="26" height="302" fill="#8ECA58"/>
<rect x="156" y="657" width="26" height="325" fill="#8ECA58"/>
<rect x="312" y="657" width="26" height="325" fill="#8ECA58"/>
<rect x="1157" y="504" width="26" height="478" fill="#8ECA58"/>
<rect x="1183" y="530" width="26" height="478" fill="#8ECA58"/>
<rect x="1209" y="555" width="26" height="427" fill="#8ECA58"/>
<rect x="1235" y="605" width="26" height="377" fill="#8ECA58"/>
<rect x="1417" y="683" width="26" height="299" fill="#8ECA58"/>
<rect x="1287" y="680" width="26" height="302" fill="#8ECA58"/>
<rect x="1313" y="706" width="26" height="276" fill="#8ECA58"/>
<rect x="1391" y="706" width="26" height="276" fill="#8ECA58"/>
<rect x="1443" y="706" width="26" height="276" fill="#8ECA58"/>
<rect x="1261" y="654" width="26" height="328" fill="#8ECA58"/>
<rect x="234" y="605" width="26" height="377" fill="#8ECA58"/>
<rect x="1054" y="504" width="25" height="254" fill="#8ECA58"/>
<rect x="1028" y="530" width="26" height="254" fill="#8ECA58"/>
<rect x="1003" y="556" width="25" height="254" fill="#8ECA58"/>
<rect x="976" y="603" width="27" height="254" fill="#8ECA58"/>
<rect x="923" y="678" width="27" height="80" fill="#8ECA58"/>
<rect x="896" y="706" width="27" height="80" fill="#8ECA58"/>
<rect x="52" y="732" width="52" height="250" fill="#8ECA58"/>
<rect x="1339" y="732" width="52" height="250" fill="#8ECA58"/>
<rect x="1469" y="732" width="43" height="250" fill="#8ECA58"/>
<rect x="260" y="631" width="52" height="351" fill="#8ECA58"/>
<rect x="390" y="732" width="52" height="250" fill="#8ECA58"/>
<rect x="442" y="758" width="637" height="224" fill="#8ECA58"/>
<rect x="182" y="631" width="52" height="351" fill="#8ECA58"/>
<rect y="846" width="390" height="234" fill="#8ECA58"/>
<rect x="108" y="883" width="390" height="197" fill="#8ECA58"/>
<rect x="416" y="827" width="390" height="253" fill="#8ECA58"/>
<rect x="183" y="734" width="259" height="123" fill="#8ECA58"/>
<rect x="131" y="680" width="233" height="26" fill="#8ECA58"/>
<rect x="105" y="696" width="285" height="62" fill="#8ECA58"/>
<rect x="130" y="666" width="234" height="38" fill="#8ECA58"/>
<rect x="182" y="615" width="130" height="89" fill="#8ECA58"/>
<rect x="567" y="719" width="91" height="99" fill="#8ECA58"/>
<rect x="938" y="631" width="336" height="163" fill="#8ECA58"/>
<rect x="1105" y="565" width="143" height="184" fill="#8ECA58"/>
<rect x="1079" y="543" width="143" height="184" fill="#8ECA58"/>
<rect x="1162" y="673" width="140" height="184" fill="#8ECA58"/>
<rect x="1186" y="699" width="140" height="184" fill="#8ECA58"/>
<rect x="1256" y="765" width="664" height="142" fill="#8ECA58"/>
<rect x="1403" y="699" width="58" height="158" fill="#8ECA58"/>
<rect x="1506" y="727" width="58" height="158" fill="#8ECA58"/>
<rect x="1532" y="752" width="58" height="158" fill="#8ECA58"/>
<rect x="1667" y="732" width="232" height="158" fill="#8ECA58"/>
<rect x="1769" y="706" width="104" height="158" fill="#8ECA58"/>
<rect x="1642" y="749" width="278" height="165" fill="#8ECA58"/>
<rect x="766" y="757" width="336" height="163" fill="#8ECA58"/>
<rect x="814" y="733" width="336" height="163" fill="#8ECA58"/>
<rect x="857" y="714" width="336" height="163" fill="#8ECA58"/>
<rect x="899" y="694" width="336" height="163" fill="#8ECA58"/>
<rect x="2" y="758" width="687" height="88" fill="#8ECA58"/>
<rect x="689" y="782" width="1231" height="298" fill="#8ECA58"/>
<rect x="1079" y="478" width="78" height="504" fill="#8ECA58"/>
<rect x="26" y="732" width="26" height="26" fill="black"/>
<rect x="52" y="706" width="26" height="26" fill="black"/>
<rect x="65" y="706" width="39" height="26" fill="black"/>
<rect x="104" y="680" width="26" height="26" fill="black"/>
<rect x="104" y="794" width="26" height="26" fill="#558B25"/>
<rect x="130" y="820" width="26" height="26" fill="#558B25"/>
<rect x="818" y="870" width="26" height="26" fill="#558B25"/>
<rect x="844" y="896" width="26" height="26" fill="#558B25"/>
<rect x="1131" y="628" width="26" height="26" fill="#558B25"/>
<rect x="1157" y="602" width="26" height="26" fill="#558B25"/>
<rect x="1365" y="902" width="26" height="26" fill="#558B25"/>
<rect x="1659" y="982" width="26" height="26" fill="#558B25"/>
<rect x="1633" y="956" width="26" height="26" fill="#558B25"/>
<rect x="1685" y="956" width="26" height="26" fill="#558B25"/>
<rect x="1339" y="928" width="26" height="26" fill="#558B25"/>
<rect x="156" y="794" width="26" height="26" fill="#558B25"/>
<rect x="1143" y="732" width="26" height="26" fill="#558B25"/>
<rect x="1169" y="758" width="26" height="26" fill="#558B25"/>
<rect x="1195" y="732" width="26" height="26" fill="#558B25"/>
<rect x="390" y="857" width="26" height="26" fill="#558B25"/>
<rect x="534" y="1008" width="26" height="26" fill="#558B25"/>
<rect x="560" y="982" width="26" height="26" fill="#558B25"/>
<rect x="130" y="654" width="26" height="26" fill="black"/>
<rect x="156" y="631" width="26" height="26" fill="black"/>
<rect x="182" y="605" width="39" height="26" fill="black"/>
<rect x="208" y="605" width="26" height="26" fill="black"/>
<rect x="234" y="579" width="26" height="26" fill="black"/>
<rect x="260" y="605" width="52" height="26" fill="black"/>
<rect x="273" y="605" width="39" height="26" fill="black"/>
<rect x="312" y="631" width="26" height="26" fill="black"/>
<rect x="338" y="654" width="26" height="26" fill="black"/>
<rect x="364" y="680" width="26" height="26" fill="black"/>
<rect x="390" y="706" width="26" height="26" fill="black"/>
<rect x="403" y="706" width="39" height="26" fill="black"/>
<rect x="637" y="708" width="26" height="26" fill="black"/>
<rect x="741" y="758" width="26" height="26" fill="black"/>
<rect x="715" y="758" width="26" height="26" fill="black"/>
<rect x="689" y="758" width="69" height="26" fill="black"/>
<rect x="846" y="706" width="26" height="26" fill="black"/>
<rect x="820" y="706" width="38" height="26" fill="black"/>
<rect x="793" y="732" width="26" height="26" fill="black"/>
<rect x="442" y="732" width="106" height="26" fill="black"/>
<rect x="611" y="680" width="26" height="26" fill="black"/>
<rect x="663" y="734" width="26" height="26" fill="black"/>
<rect x="767" y="732" width="39" height="26" fill="black"/>
<rect x="924" y="631" width="26" height="26" fill="black"/>
<rect x="924" y="645" width="26" height="38" fill="black"/>
<rect x="898" y="683" width="26" height="26" fill="black"/>
<rect x="1053" y="478" width="26" height="26" fill="black"/>
<rect x="1028" y="504" width="26" height="26" fill="black"/>
<rect x="1002" y="529" width="26" height="26" fill="black"/>
<rect x="976" y="553" width="26" height="26" fill="black"/>
<rect x="976" y="579" width="26" height="26" fill="black"/>
<rect x="1079" y="452" width="26" height="26" fill="black"/>
<rect x="1105" y="452" width="26" height="26" fill="black"/>
<rect x="1131" y="452" width="26" height="26" fill="black"/>
<rect x="1157" y="478" width="26" height="26" fill="black"/>
<rect x="1183" y="504" width="26" height="26" fill="black"/>
<rect x="1209" y="530" width="26" height="26" fill="black"/>
<rect x="1235" y="556" width="26" height="37" fill="black"/>
<rect x="1261" y="605" width="26" height="26" fill="black"/>
<rect x="1261" y="615" width="26" height="39" fill="black"/>
<rect x="1235" y="579" width="26" height="26" fill="black"/>
<rect x="1287" y="654" width="26" height="26" fill="black"/>
<rect x="1313" y="680" width="26" height="26" fill="black"/>
<rect x="1339" y="706" width="40" height="26" fill="black"/>
<rect x="1365" y="706" width="26" height="26" fill="black"/>
<rect x="1391" y="680" width="26" height="26" fill="black"/>
<rect x="1417" y="657" width="26" height="26" fill="black"/>
<rect x="1469" y="706" width="26" height="26" fill="black"/>
<rect x="1443" y="680" width="26" height="26" fill="black"/>
<rect x="1486" y="706" width="26" height="26" fill="black"/>
<rect x="1512" y="706" width="26" height="26" fill="black"/>
<rect x="1538" y="706" width="26" height="26" fill="black"/>
<rect x="1564" y="731" width="26" height="26" fill="black"/>
<rect x="1590" y="756" width="26" height="26" fill="black"/>
<rect x="1616" y="756" width="26" height="26" fill="black"/>
<rect x="1641" y="730" width="26" height="26" fill="black"/>
<rect x="1667" y="706" width="26" height="26" fill="black"/>
<rect x="1693" y="706" width="26" height="26" fill="black"/>
<rect x="1718" y="706" width="26" height="26" fill="black"/>
<rect x="1743" y="706" width="26" height="26" fill="black"/>
<rect x="1769" y="680" width="26" height="26" fill="black"/>
<rect x="1795" y="680" width="26" height="26" fill="black"/>
<rect x="1821" y="707" width="26" height="26" fill="black"/>
<rect x="1847" y="681" width="26" height="26" fill="black"/>
<rect x="1873" y="707" width="26" height="26" fill="black"/>
<rect x="1899" y="730" width="26" height="26" fill="black"/>
<rect x="950" y="605" width="26" height="26" fill="black"/>
<rect x="872" y="683" width="41" height="26" fill="black"/>
<rect x="467" y="732" width="26" height="26" fill="black"/>
<rect x="485" y="732" width="26" height="26" fill="black"/>
<rect x="507" y="732" width="26" height="26" fill="black"/>
<rect x="533" y="732" width="26" height="26" fill="black"/>
<rect x="559" y="706" width="26" height="26" fill="black"/>
<rect x="585" y="680" width="37" height="26" fill="black"/>
<rect x="195" y="72" width="39" height="26" fill="black"/>
<rect x="169" y="98" width="26" height="39" fill="black"/>
<rect x="65" y="280" width="26" height="49" fill="black"/>
<rect x="169" y="124" width="26" height="26" fill="black"/>
<rect x="117" y="150" width="26" height="26" fill="black"/>
<rect x="39" y="202" width="26" height="61" fill="black"/>
<rect x="91" y="150" width="65" height="26" fill="black"/>
<rect x="39" y="228" width="26" height="26" fill="black"/>
<rect x="39" y="254" width="26" height="26" fill="black"/>
<rect x="65" y="303" width="26" height="26" fill="black"/>
<rect x="77" y="303" width="40" height="26" fill="black"/>
<rect x="117" y="329" width="63" height="26" fill="black"/>
<rect x="325" y="46" width="26" height="26" fill="black"/>
<rect x="468" y="150" width="40" height="26" fill="black"/>
<rect x="65" y="176" width="26" height="26" fill="black"/>
<rect x="169" y="329" width="26" height="26" fill="black"/>
<rect x="195" y="306" width="115" height="26" fill="black"/>
<rect x="221" y="306" width="26" height="26" fill="black"/>
<rect x="247" y="306" width="26" height="26" fill="black"/>
<rect x="273" y="306" width="26" height="26" fill="black"/>
<rect x="299" y="306" width="26" height="26" fill="black"/>
<rect x="325" y="332" width="93" height="26" fill="black"/>
<rect x="221" y="72" width="26" height="26" fill="black"/>
<rect x="247" y="46" width="88" height="26" fill="black"/>
<rect x="273" y="46" width="26" height="26" fill="black"/>
<rect x="299" y="46" width="26" height="26" fill="black"/>
<rect x="351" y="72" width="26" height="26" fill="black"/>
<rect x="377" y="98" width="64" height="26" fill="black"/>
<rect x="403" y="98" width="26" height="26" fill="black"/>
<rect x="429" y="98" width="26" height="26" fill="black"/>
<rect x="143" y="329" width="26" height="26" fill="black"/>
<rect x="456" y="124" width="26" height="43" fill="black"/>
<rect x="351" y="332" width="26" height="26" fill="black"/>
<rect x="377" y="332" width="26" height="26" fill="black"/>
<rect x="403" y="332" width="26" height="26" fill="black"/>
<rect x="430" y="306" width="123" height="26" fill="black"/>
<rect x="456" y="306" width="26" height="26" fill="black"/>
<rect x="456" y="150" width="26" height="26" fill="black"/>
<rect x="507" y="176" width="26" height="26" fill="black"/>
<rect x="522" y="176" width="37" height="26" fill="black"/>
<rect x="559" y="202" width="26" height="26" fill="black"/>
<rect x="559" y="228" width="26" height="26" fill="black"/>
<rect x="559" y="254" width="26" height="26" fill="black"/>
<rect x="559" y="214" width="26" height="92" fill="black"/>
<rect x="482" y="306" width="26" height="26" fill="black"/>
<rect x="508" y="306" width="26" height="26" fill="black"/>
<rect x="534" y="306" width="26" height="26" fill="black"/>
<rect x="143" y="150" width="26" height="26" fill="black"/>
<rect x="91" y="176" width="26" height="130" fill="#EAEAF2"/>
<rect x="117" y="280" width="78" height="49" fill="#EAEAF2"/>
<rect x="195" y="280" width="156" height="26" fill="#EAEAF2"/>
<rect x="117" y="176" width="52" height="104" fill="white"/>
<rect x="169" y="150" width="26" height="130" fill="white"/>
<rect x="155" y="176" width="92" height="104" fill="white"/>
<rect x="199" y="124" width="74" height="52" fill="white"/>
<rect x="217" y="202" width="134" height="52" fill="white"/>
<rect x="364" y="150" width="66" height="156" fill="white"/>
<rect x="364" y="150" width="66" height="156" fill="white"/>
<rect x="143" y="176" width="26" height="130" fill="white"/>
<rect x="195" y="98" width="26" height="182" fill="white"/>
<rect x="195" y="98" width="52" height="182" fill="white"/>
<rect x="351" y="98" width="26" height="208" fill="white"/>
<rect x="428" y="124" width="28" height="179" fill="white"/>
<rect x="441" y="176" width="66" height="127" fill="white"/>
<rect x="482" y="202" width="77" height="104" fill="white"/>
<rect x="377" y="124" width="64" height="182" fill="white"/>
<rect x="337" y="150" width="64" height="130" fill="white"/>
<rect x="247" y="72" width="104" height="208" fill="white"/>
<rect x="65" y="202" width="47" height="78" fill="#EAEAF2"/>
<rect x="430" y="283" width="87" height="23" fill="#EAEAF2"/>
<rect x="117" y="254" width="26" height="75" fill="#EAEAF2"/>
<rect x="247" y="254" width="78" height="40" fill="#EAEAF2"/>
<rect x="195" y="98" width="52" height="26" fill="#EAEAF2"/>
<rect x="299" y="72" width="52" height="26" fill="#EAEAF2"/>
<rect x="325" y="82" width="26" height="42" fill="#EAEAF2"/>
<rect x="273" y="150" width="52" height="26" fill="#EAEAF2"/>
<rect x="325" y="124" width="78" height="26" fill="#EAEAF2"/>
<rect x="351" y="98" width="26" height="26" fill="#EAEAF2"/>
<rect x="325" y="98" width="52" height="35" fill="#EAEAF2"/>
<rect x="247" y="176" width="26" height="26" fill="#EAEAF2"/>
<rect x="104" y="254" width="26" height="52" fill="#EAEAF2"/>
<rect x="456" y="176" width="52" height="26" fill="#EAEAF2"/>
<rect x="325" y="306" width="105" height="26" fill="#EAEAF2"/>
<path d="M1534.04 96.48V92.88H1530.4V88.84H1534.44V92.48H1544.92V85.6H1534.04V82H1530.4V74.4H1534.04V70.76H1545.32V74.4H1549V78.4H1544.92V74.8H1534.44V81.64H1545.32V85.2H1549V92.88H1545.32V96.48H1534.04ZM1559.48 96.48V92.88H1555.88V82H1552.24V78H1555.88V70.76H1559.88V78H1570.84V82H1559.88V92.48H1570.44V88.84H1574.48V92.88H1570.84V96.48H1559.48ZM1581.74 96.48V92.88H1578.1V81.64H1581.74V78H1593.02V81.64H1596.7V92.48H1600.34V96.48H1596.3V92.88H1593.02V96.48H1581.74ZM1582.14 92.48H1592.62V82H1582.14V92.48ZM1605.17 96.48V81.64H1608.81V78H1620.09V81.64H1623.77V85.6H1619.69V82H1609.21V96.48H1605.17ZM1635.13 88V83.96H1646.41V88H1635.13ZM1657.94 96.48V74.4H1661.58V70.76H1672.86V74.4H1676.54V85.6H1672.86V89.24H1661.98V96.48H1657.94ZM1661.98 85.2H1672.46V74.8H1661.98V85.2ZM1680.6 96.48V70.76H1684.64V96.48H1680.6ZM1692.32 96.48V92.88H1688.68V81.64H1692.32V78H1703.6V81.64H1707.28V92.48H1710.92V96.48H1706.88V92.88H1703.6V96.48H1692.32ZM1692.72 92.48H1703.2V82H1692.72V92.48ZM1716.58 103.72V100.12H1712.94V96.12H1716.98V99.72H1727.5V92.88H1716.58V89.24H1712.94V78H1716.98V88.84H1727.5V78H1731.54V100.12H1727.9V103.72H1716.58ZM1740.02 96.48V92.88H1736.38V81.64H1740.02V78H1751.3V81.64H1754.98V85.6H1750.9V82H1740.42V85.2H1747.7V89.24H1740.42V92.48H1750.9V88.8H1754.98V92.84H1751.3V96.48H1740.02ZM1759.81 96.48V81.64H1763.45V78H1774.73V81.64H1778.41V85.6H1774.33V82H1763.85V96.48H1759.81ZM1794.9 96.48V92.88H1791.26V74.4H1794.9V70.76H1806.18V74.4H1809.86V92.88H1806.18V96.48H1794.9ZM1795.3 92.48H1805.78V74.8H1795.3V92.48ZM1814.7 96.48V78H1829.62V81.64H1833.3V96.48H1829.22V82H1818.74V96.48H1814.7ZM1840.56 96.48V92.88H1836.92V81.64H1840.56V78H1851.84V81.64H1855.52V85.6H1851.44V82H1840.96V85.2H1848.24V89.24H1840.96V92.48H1851.44V88.8H1855.52V92.84H1851.84V96.48H1840.56Z" fill="black"/>
<path d="M1518.04 161.48V157.88H1514.4V139.4H1518.04V135.76H1529.32V139.4H1533V147H1528.92V139.8H1518.44V157.48H1528.92V150.2H1533V157.88H1529.32V161.48H1518.04ZM1537.84 161.48V143H1541.88V161.48H1537.84ZM1537.84 139.8V135.76H1541.88V139.8H1537.84ZM1546.7 161.48V146.64H1550.34V143H1561.62V146.64H1565.3V150.6H1561.22V147H1550.74V161.48H1546.7ZM1573 161.48V157.88H1569.36V146.64H1573V143H1584.28V146.64H1587.96V150.6H1583.88V147H1573.4V157.48H1583.88V153.84H1587.96V157.88H1584.28V161.48H1573ZM1592.02 161.48V135.76H1596.06V161.48H1592.02ZM1603.74 161.48V157.88H1600.1V146.64H1603.74V143H1615.02V146.64H1618.7V150.6H1614.62V147H1604.14V150.2H1611.42V154.24H1604.14V157.48H1614.62V153.8H1618.7V157.84H1615.02V161.48H1603.74ZM1630.07 153V148.96H1641.35V153H1630.07ZM1652.88 161.48V139.4H1656.52V135.76H1667.8V139.4H1671.48V150.6H1667.8V154.24H1656.92V161.48H1652.88ZM1656.92 150.2H1667.4V139.8H1656.92V150.2ZM1675.53 161.48V135.76H1679.57V161.48H1675.53ZM1687.26 161.48V157.88H1683.62V146.64H1687.26V143H1698.54V146.64H1702.22V157.48H1705.86V161.48H1701.82V157.88H1698.54V161.48H1687.26ZM1687.66 157.48H1698.14V147H1687.66V157.48ZM1711.52 168.72V165.12H1707.88V161.12H1711.92V164.72H1722.44V157.88H1711.52V154.24H1707.88V143H1711.92V153.84H1722.44V143H1726.48V165.12H1722.84V168.72H1711.52ZM1734.95 161.48V157.88H1731.31V146.64H1734.95V143H1746.23V146.64H1749.91V150.6H1745.83V147H1735.35V150.2H1742.63V154.24H1735.35V157.48H1745.83V153.8H1749.91V157.84H1746.23V161.48H1734.95ZM1754.75 161.48V146.64H1758.39V143H1769.67V146.64H1773.35V150.6H1769.27V147H1758.79V161.48H1754.75ZM1793.44 161.48V139.8H1790.24V143.4H1786.2V139.4H1789.84V135.76H1801.12V139.4H1804.8V143.4H1800.72V139.8H1797.52V161.48H1793.44ZM1807.25 161.48V143H1811.29V157.48H1818.17V143H1822.17V157.48H1829.09V143H1833.09V157.88H1829.49V161.48H1821.77V157.88H1818.57V161.48H1807.25ZM1840.34 161.48V157.88H1836.7V146.64H1840.34V143H1851.62V146.64H1855.3V157.88H1851.62V161.48H1840.34ZM1840.74 157.48H1851.22V147H1840.74V157.48Z" fill="black"/>
<mask id="path-250-inside-1_24_131" fill="white">
<rect x="539" y="482" width="842" height="191" rx="5"/>
</mask>
<rect x="539" y="482" width="842" height="191" rx="5" fill="#FEF397" stroke="black" stroke-width="20" mask="url(#path-250-inside-1_24_131)"/>
<mask id="path-251-inside-2_24_131" fill="white">
<rect x="726" y="406" width="473" height="115" rx="5"/>
</mask>
<g filter="url(#filter0_i_24_131)">
<rect x="726" y="406" width="473" height="115" rx="5" fill="#FFA154"/>
</g>
<rect x="726" y="406" width="473" height="115" rx="5" stroke="black" stroke-width="20" mask="url(#path-251-inside-2_24_131)"/>
<path d="M729.417 603.152V551.12H721.737V559.76H712.041V550.16H720.777V541.424H747.849V550.16H756.681V559.76H746.889V551.12H739.209V603.152H729.417ZM765.385 603.152V558.8H775.081V603.152H765.385ZM765.385 551.12V541.424H775.081V551.12H765.385ZM793.527 603.152V594.512H784.791V567.536H793.527V558.8H820.599V567.536H829.431V577.04H819.639V568.4H794.487V593.552H819.639V584.816H829.431V594.512H820.599V603.152H793.527ZM837.489 582.8V573.104H864.561V582.8H837.489ZM887.48 603.152V551.12H879.8V559.76H870.104V550.16H878.84V541.424H905.912V550.16H914.744V559.76H904.952V551.12H897.272V603.152H887.48ZM925.527 603.152V594.512H916.791V567.536H925.527V558.8H952.599V567.536H961.431V593.552H970.167V603.152H960.471V594.512H952.599V603.152H925.527ZM926.487 593.552H951.639V568.4H926.487V593.552ZM985.715 603.152V594.512H976.979V567.536H985.715V558.8H1012.79V567.536H1021.62V577.04H1011.83V568.4H986.675V593.552H1011.83V584.816H1021.62V594.512H1012.79V603.152H985.715ZM1029.68 582.8V573.104H1056.75V582.8H1029.68ZM1079.67 603.152V551.12H1071.99V559.76H1062.29V550.16H1071.03V541.424H1098.1V550.16H1106.93V559.76H1097.14V551.12H1089.46V603.152H1079.67ZM1117.71 603.152V594.512H1108.98V567.536H1117.71V558.8H1144.79V567.536H1153.62V594.512H1144.79V603.152H1117.71ZM1118.67 593.552H1143.83V568.4H1118.67V593.552ZM1173.96 603.152V594.512H1165.23V567.536H1173.96V558.8H1201.04V567.536H1209.87V577.04H1200.08V568.4H1174.92V576.08H1192.4V585.776H1174.92V593.552H1200.08V584.72H1209.87V594.416H1201.04V603.152H1173.96Z" fill="black"/>
<path d="M755.354 480.66V445.295H770.919V450.3H775.869V455.25H780.929V470.705H775.869V475.71H770.919V480.66H755.354ZM760.909 475.16H770.369V470.155H775.319V455.8H770.369V450.85H760.909V475.16ZM792.586 480.66V475.71H787.581V460.255H792.586V455.25H808.096V460.255H813.156V465.7H807.546V460.75H793.136V465.15H803.146V470.705H793.136V475.16H807.546V470.1H813.156V475.655H808.096V480.66H792.586ZM824.812 480.66V475.71H819.807V460.255H824.812V455.25H840.322V460.255H845.382V465.7H839.772V460.75H825.362V475.16H839.772V470.155H845.382V475.71H840.322V480.66H824.812ZM852.034 480.66V455.25H857.589V480.66H852.034ZM852.034 450.85V445.295H857.589V450.85H852.034ZM864.226 480.66V475.16H884.191V470.705H869.231V465.7H864.226V460.255H869.231V455.25H889.801V460.75H869.781V465.15H884.741V470.155H889.801V475.71H884.741V480.66H864.226ZM896.453 480.66V455.25H902.008V480.66H896.453ZM896.453 450.85V445.295H902.008V450.85H896.453ZM912.576 480.66V475.71H907.571V460.255H912.576V455.25H928.086V460.255H933.146V475.71H928.086V480.66H912.576ZM913.126 475.16H927.536V460.75H913.126V475.16ZM939.798 480.66V455.25H960.313V460.255H965.373V480.66H959.763V460.75H945.353V480.66H939.798ZM969.989 469V463.445H985.499V469H969.989ZM990.34 480.66V450.3H995.345V445.295H1000.84V450.3H1005.9V460.255H1010.3V450.3H1015.36V445.295H1020.92V450.3H1025.87V480.66H1020.37V450.85H1015.91V460.75H1010.85V475.71H1005.35V460.75H1000.29V450.85H995.895V480.66H990.34ZM1037.51 480.66V475.71H1032.5V460.255H1037.51V455.25H1053.02V460.255H1058.08V475.16H1063.08V480.66H1057.53V475.71H1053.02V480.66H1037.51ZM1038.06 475.16H1052.47V460.75H1038.06V475.16ZM1067.52 480.66V445.295H1073.08V465.15H1077.48V460.255H1087.49V455.25H1093.1V460.75H1088.04V465.7H1078.03V470.155H1088.04V475.16H1093.1V480.66H1087.49V475.71H1077.48V470.705H1073.08V480.66H1067.52ZM1099.75 480.66V455.25H1105.3V480.66H1099.75ZM1099.75 450.85V445.295H1105.3V450.85H1099.75ZM1110.87 480.66V455.25H1131.38V460.255H1136.44V480.66H1130.83V460.75H1116.42V480.66H1110.87ZM1147.02 490.615V485.665H1142.02V480.165H1147.57V485.115H1162.04V475.71H1147.02V470.705H1142.02V460.255H1147.02V455.25H1162.59V460.255H1167.59V485.665H1162.59V490.615H1147.02ZM1147.57 470.155H1162.04V460.75H1147.57V470.155Z" fill="black"/>
</g>
<defs>
<filter id="filter0_i_24_131" x="726" y="406" width="473" height="119" filterUnits="userSpaceOnUse" color-interpolation-filters="sRGB">
<feFlood flood-opacity="0" result="BackgroundImageFix"/>
<feBlend mode="normal" in="SourceGraphic" in2="BackgroundImageFix" result="shape"/>
<feColorMatrix in="SourceAlpha" type="matrix" values="0 0 0 0 0 0 0 0 0 0 0 0 0 0 0 0 0 0 127 0" result="hardAlpha"/>
<feOffset dy="4"/>
<feGaussianBlur stdDeviation="2"/>
<feComposite in2="hardAlpha" operator="arithmetic" k2="-1" k3="1"/>
<feColorMatrix type="matrix" values="0 0 0 0 0 0 0 0 0 0 0 0 0 0 0 0 0 0 0.25 0"/>
<feBlend mode="normal" in2="shape" result="effect1_innerShadow_24_131"/>
</filter>
<clipPath id="clip0_24_131">
<rect width="1920" height="1080" fill="white"/>
</clipPath>
</defs>
</svg>
