<svg width="122" height="122" viewBox="0 0 122 122" fill="none" xmlns="http://www.w3.org/2000/svg">
<path d="M72.3174 42.9229L72.8789 44.6504H111.319L81.6904 66.1777L80.2207 67.2451L80.7822 68.9727L92.0996 103.805L62.4697 82.2773L61 81.21L59.5303 82.2773L29.8994 103.805L41.2178 68.9727L41.7793 67.2451L40.3096 66.1777L10.6807 44.6504H49.1211L49.6826 42.9229L61 8.09082L72.3174 42.9229Z" fill="#FF8000" stroke="black" stroke-width="5"/>
<path d="M66.084 52.502L66.4209 53.5381H83.9648L70.6533 63.209L69.7715 63.8496L70.1084 64.8867L75.1924 80.5342L61.8818 70.8633L61 70.2227L60.1182 70.8633L46.8066 80.5342L51.8916 64.8867L52.2285 63.8496L51.3467 63.209L38.0352 53.5381H55.5791L55.916 52.502L61 36.8545L66.084 52.502Z" fill="#FF8000" stroke="#F5F5F5" stroke-width="3"/>
</svg>
